<svg width="200" height="95" viewBox="0 0 200 95" fill="none" xmlns="http://www.w3.org/2000/svg">
<rect x="1" y="1" width="198" height="93" rx="7" fill="url(#paint0_linear_1_62)"/>
<rect x="1" y="1" width="198" height="93" rx="7" stroke="black" stroke-width="2"/>
<mask id="path-2-inside-1_1_62" fill="white">
<path d="M12 6H154V33H12V6Z"/>
</mask>
<path d="M154 32H12V34H154V32Z" fill="black" mask="url(#path-2-inside-1_1_62)"/>
<path d="M18.048 21.896V20.456H24.048V27H22.64V23.928C22.144 25.576 20.848 27.176 18.384 27.176C15.232 27.176 12.8 24.648 12.8 20.92C12.8 17.192 15.168 14.664 18.512 14.664C21.344 14.664 23.248 16.168 23.872 18.6H22.192C21.648 17.064 20.448 16.024 18.512 16.024C16.096 16.024 14.48 18.04 14.48 20.92C14.48 23.816 16.128 25.816 18.576 25.816C20.8 25.816 22.384 24.424 22.432 21.896H18.048ZM32.9788 21.8L36.0828 27H34.1948L31.2668 22.04H31.2188H28.3548V27H26.7388V14.84H31.2188C33.9068 14.84 35.5868 16.248 35.5868 18.44C35.5868 20.104 34.6108 21.32 32.9788 21.8ZM31.2508 16.28H28.3548V20.6H31.2508C32.8988 20.6 33.9068 19.832 33.9068 18.44C33.9068 17.048 32.8988 16.28 31.2508 16.28ZM39.7298 21.448V25.56H46.1778V27H38.1138V14.84H46.0338V16.28H39.7298V20.008H45.9218V21.448H39.7298ZM50.2298 21.448V25.56H56.6778V27H48.6138V14.84H56.5338V16.28H50.2298V20.008H56.4218V21.448H50.2298ZM67.9458 26.936V14.84H69.5618V27H66.2178L60.7298 14.904V27H59.1138V14.84H62.4578L67.9458 26.936ZM84.5821 20.008V14.84H86.1981V27H84.5821V21.448H78.2141V27H76.5981V14.84H78.2141V20.008H84.5821ZM94.3108 27.176C90.8868 27.176 88.5188 24.648 88.5188 20.92C88.5188 17.192 90.8868 14.664 94.3108 14.664C97.7348 14.664 100.103 17.192 100.103 20.92C100.103 24.648 97.7348 27.176 94.3108 27.176ZM94.3108 25.816C96.7587 25.816 98.4228 23.8 98.4228 20.92C98.4228 18.04 96.7587 16.024 94.3108 16.024C91.8628 16.024 90.1988 18.04 90.1988 20.92C90.1988 23.8 91.8628 25.816 94.3108 25.816ZM106.314 27.176C103.738 27.176 101.882 25.72 101.514 23.336H103.194C103.418 24.984 104.682 25.816 106.314 25.816C108.458 25.816 109.626 24.92 109.626 23.656C109.626 22.328 108.65 22.008 106.698 21.576L105.178 21.24C103.274 20.824 101.898 19.864 101.898 18.04C101.898 16.104 103.834 14.664 106.282 14.664C108.842 14.664 110.586 16.008 110.938 18.008H109.258C108.874 16.616 107.754 16.024 106.282 16.024C104.746 16.024 103.53 16.76 103.53 17.88C103.53 19.032 104.314 19.416 106.186 19.832L107.706 20.168C110.154 20.712 111.258 21.576 111.258 23.48C111.258 25.656 109.29 27.176 106.314 27.176ZM111.96 14.84H121.672V16.28H117.624V27H116.008V16.28H111.96V14.84ZM125.089 27H123.473V14.84H125.089V27ZM136.961 26.936V14.84H138.577V27H135.233L129.745 14.904V27H128.129V14.84H131.473L136.961 26.936ZM146.142 21.896V20.456H152.142V27H150.734V23.928C150.238 25.576 148.942 27.176 146.478 27.176C143.326 27.176 140.894 24.648 140.894 20.92C140.894 17.192 143.262 14.664 146.606 14.664C149.438 14.664 151.342 16.168 151.966 18.6H150.286C149.742 17.064 148.542 16.024 146.606 16.024C144.19 16.024 142.574 18.04 142.574 20.92C142.574 23.816 144.222 25.816 146.67 25.816C148.894 25.816 150.478 24.424 150.526 21.896H146.142Z" fill="black"/>
<path d="M159.208 23.285V23.6825C159.208 30.7875 164.988 36.565 172.09 36.565C179.193 36.565 184.973 30.785 184.973 23.6825V23.285H159.208Z" fill="white"/>
<path d="M158.75 23.05V23.46C158.75 30.7875 164.71 36.7475 172.037 36.7475C179.365 36.7475 185.325 30.7875 185.325 23.46V23.05H158.75ZM171.627 30.0925V35.8775C170.1 35.5375 168.247 33.3775 167.1 30.0925H171.627ZM166.837 29.2725C166.365 27.675 166.062 25.8525 166.03 23.87H171.627V29.2725H166.837ZM172.445 35.8725V30.0925H176.915C176.625 30.895 176.285 31.6625 175.895 32.38C174.852 34.2925 173.542 35.6 172.445 35.8725ZM172.445 29.2725V23.87H178.042C178.007 25.73 177.715 27.57 177.192 29.2725H172.445ZM165.21 23.87C165.242 25.805 165.53 27.635 165.997 29.2725H161.012C160.128 27.6046 159.637 25.7568 159.575 23.87H165.212H165.21ZM161.485 30.0925H166.252C167.085 32.585 168.325 34.565 169.647 35.6975C166.217 35.03 163.287 32.9525 161.485 30.0925ZM174.37 35.7075C175.69 34.57 176.935 32.5725 177.782 30.0925H182.592C180.78 32.9675 177.825 35.05 174.372 35.7075H174.37ZM183.062 29.2725H178.04C178.525 27.62 178.825 25.785 178.862 23.87H184.497C184.437 25.757 183.945 27.605 183.06 29.2725H183.062Z" fill="black"/>
<path d="M174.778 23.05L184.903 19.3325L184.225 17.4875L174.92 20.905L181.58 11.9725L180.005 10.8L173.073 20.0975V7.5H171.108V20.2575L164.178 10.805L162.593 11.9675L169.108 20.85L159.833 17.4425L159.155 19.2875L169.4 23.05H174.778Z" fill="#00FF00"/>
<path d="M32.952 51.955L34.131 47.176H34.986L33.798 52H32.115L31.179 47.221L30.243 52H28.56L27.39 47.23L26.211 52H24.528L23.592 47.221L22.656 52H20.973L19.803 47.23L18.624 52H16.941L16.005 47.221L15.069 52H13.386L12.198 47.176H13.053L14.232 51.955L15.168 47.176H16.842L17.778 51.955L18.957 47.176H20.64L21.819 51.955L22.755 47.176H24.429L25.365 51.955L26.544 47.176H28.227L29.406 51.955L30.342 47.176H32.016L32.952 51.955ZM36.6503 52H35.5883V50.92H36.6503V52ZM39.509 51.388L40.922 47.176H41.84L39.626 53.764H38.708L39.482 51.469H38.627L36.953 47.176H37.862L39.509 51.388ZM44.6366 52.099C43.2056 52.099 42.2876 51.082 42.2876 49.588C42.2876 48.094 43.2056 47.077 44.6366 47.077C46.0676 47.077 46.9766 48.094 46.9766 49.588C46.9766 51.082 46.0676 52.099 44.6366 52.099ZM44.6366 51.451C45.5546 51.451 46.0766 50.722 46.0766 49.588C46.0766 48.454 45.5546 47.725 44.6366 47.725C43.7186 47.725 43.1876 48.454 43.1876 49.588C43.1876 50.722 43.7186 51.451 44.6366 51.451ZM51.165 50.029V47.176H52.047V52H51.165V51.037C50.958 51.586 50.481 52.099 49.68 52.099C48.591 52.099 48.024 51.262 48.024 50.182V50.164V47.176H48.906V50.029V50.047C48.906 51.019 49.338 51.451 50.04 51.451C50.742 51.451 51.165 51.01 51.165 50.029ZM54.3301 47.176V48.211C54.5461 47.536 55.0231 47.077 55.9141 47.077V47.95H55.6441C54.7621 47.95 54.3301 48.229 54.3301 49.093V52H53.4481V47.176H54.3301ZM60.1648 48.346V45.16H61.0468V52H60.1648V50.947C59.8678 51.64 59.1838 52.099 58.4638 52.099C57.2938 52.099 56.4118 51.073 56.4118 49.588C56.4118 48.103 57.3028 47.077 58.4638 47.077C59.3638 47.077 59.9398 47.698 60.1648 48.346ZM58.7518 51.451C59.6698 51.451 60.2008 50.722 60.2008 49.588C60.2008 48.454 59.6698 47.725 58.7518 47.725C57.8338 47.725 57.3118 48.454 57.3118 49.588C57.3118 50.722 57.8338 51.451 58.7518 51.451ZM64.4911 52.099C63.0601 52.099 62.1421 51.082 62.1421 49.588C62.1421 48.094 63.0601 47.077 64.4911 47.077C65.9221 47.077 66.8311 48.094 66.8311 49.588C66.8311 51.082 65.9221 52.099 64.4911 52.099ZM64.4911 51.451C65.4091 51.451 65.9311 50.722 65.9311 49.588C65.9311 48.454 65.4091 47.725 64.4911 47.725C63.5731 47.725 63.0421 48.454 63.0421 49.588C63.0421 50.722 63.5731 51.451 64.4911 51.451ZM73.2965 47.077C74.3495 47.077 74.8985 47.878 74.8985 48.994V49.012V52H74.0165V49.147V49.129C74.0165 48.157 73.6385 47.725 72.9365 47.725C72.2345 47.725 71.8565 48.157 71.8565 49.147V52H70.9745V49.147V49.129C70.9745 48.157 70.5965 47.725 69.8945 47.725C69.1925 47.725 68.8145 48.157 68.8145 49.147V52H67.9325V47.176H68.8145V48.157C69.0305 47.581 69.4625 47.077 70.2545 47.077C71.0825 47.077 71.5955 47.662 71.7665 48.283C71.9645 47.698 72.4325 47.077 73.2965 47.077ZM78.1459 47.077C79.6129 47.077 80.1439 47.995 80.1439 48.895V48.913V52H79.2619V51.01C78.9289 51.685 78.5329 52.099 77.5969 52.099C76.6969 52.099 75.9769 51.442 75.9769 50.551C75.9769 49.426 77.1019 49.21 77.9659 49.12L79.2619 48.985V48.904V48.886C79.2619 48.256 78.9109 47.725 78.1459 47.725C77.4709 47.725 77.0929 48.139 77.0299 48.598H76.1299C76.2379 47.689 77.0119 47.077 78.1459 47.077ZM77.9209 51.514C78.8119 51.514 79.2619 50.812 79.2619 49.948V49.588L78.2989 49.687C77.6329 49.759 76.8769 49.849 76.8769 50.551C76.8769 51.172 77.3629 51.514 77.9209 51.514ZM82.412 46.348H81.458V45.16H82.412V46.348ZM82.376 52H81.494V47.176H82.376V52ZM86.1731 47.077C87.2621 47.077 87.8471 47.914 87.8471 48.994V49.012V52H86.9651V49.147V49.129C86.9651 48.148 86.5151 47.725 85.8131 47.725C85.1111 47.725 84.6611 48.157 84.6611 49.147V52H83.7791V47.176H84.6611V48.157C84.8771 47.59 85.3451 47.077 86.1731 47.077ZM90.2372 52H89.1752V50.92H90.2372V52ZM93.914 49.408L95.813 52H94.859L93.392 49.993L91.925 52H90.971L92.87 49.408L91.16 47.176H92.114L93.392 48.85L94.67 47.176H95.624L93.914 49.408ZM98.4572 51.388L99.8702 47.176H100.788L98.5742 53.764H97.6562L98.4302 51.469H97.5752L95.9012 47.176H96.8102L98.4572 51.388ZM105.068 48.067L102.197 51.334H105.257V52H101.279V51.109L104.15 47.842H101.333V47.176H105.068V48.067Z" fill="black"/>
<path d="M17.346 60.067V57.16H18.255V64H17.346V60.877H13.764V64H12.855V57.16H13.764V60.067H17.346ZM21.7675 64.099C20.3365 64.099 19.4185 63.082 19.4185 61.588C19.4185 60.094 20.3365 59.077 21.7675 59.077C23.1985 59.077 24.1075 60.094 24.1075 61.588C24.1075 63.082 23.1985 64.099 21.7675 64.099ZM21.7675 63.451C22.6855 63.451 23.2075 62.722 23.2075 61.588C23.2075 60.454 22.6855 59.725 21.7675 59.725C20.8495 59.725 20.3185 60.454 20.3185 61.588C20.3185 62.722 20.8495 63.451 21.7675 63.451ZM26.8828 64.099C25.8118 64.099 24.9748 63.577 24.8398 62.587H25.7398C25.8748 63.271 26.3968 63.451 26.8828 63.451C27.6388 63.451 28.0258 63.163 28.0258 62.722C28.0258 62.29 27.7738 62.083 27.0538 61.93L26.3788 61.786C25.5418 61.606 24.9658 61.228 24.9658 60.49C24.9658 59.635 25.8118 59.077 26.8648 59.077C27.8008 59.077 28.6018 59.509 28.8178 60.382H27.9178C27.7828 59.959 27.3328 59.725 26.8648 59.725C26.3428 59.725 25.8388 59.968 25.8388 60.4C25.8388 60.787 26.1538 60.922 26.8018 61.057L27.4768 61.201C28.4848 61.417 28.8988 61.867 28.8988 62.614C28.8988 63.541 28.0708 64.099 26.8828 64.099ZM31.9094 63.334H32.4494V64H31.8194C30.9824 64 30.3254 63.595 30.3254 62.677V62.659V59.842H29.3084V59.176H30.3254V58.033H31.2074V59.176H32.4314V59.842H31.2074V62.659V62.677C31.2074 63.19 31.4684 63.334 31.9094 63.334ZM37.5694 61.516C37.5694 61.606 37.5604 61.732 37.5514 61.849H33.9064C33.9784 62.893 34.5094 63.451 35.3104 63.451C36.0124 63.451 36.3814 63.127 36.5614 62.587H37.4614C37.1824 63.613 36.3994 64.099 35.3104 64.099C33.8524 64.099 33.0154 63.037 33.0154 61.588C33.0154 60.121 33.8704 59.077 35.3014 59.077C36.6514 59.077 37.5694 60.031 37.5694 61.516ZM35.3014 59.725C34.5364 59.725 34.0234 60.22 33.9154 61.183H36.6694C36.6154 60.319 36.0934 59.725 35.3014 59.725ZM42.1209 60.346V57.16H43.0029V64H42.1209V62.947C41.8239 63.64 41.1399 64.099 40.4199 64.099C39.2499 64.099 38.3679 63.073 38.3679 61.588C38.3679 60.103 39.2589 59.077 40.4199 59.077C41.3199 59.077 41.8959 59.698 42.1209 60.346ZM40.7079 63.451C41.6259 63.451 42.1569 62.722 42.1569 61.588C42.1569 60.454 41.6259 59.725 40.7079 59.725C39.7899 59.725 39.2679 60.454 39.2679 61.588C39.2679 62.722 39.7899 63.451 40.7079 63.451ZM49.2371 59.077C50.3981 59.077 51.2891 60.103 51.2891 61.588C51.2891 63.073 50.4071 64.099 49.2371 64.099C48.5171 64.099 47.8331 63.64 47.5361 62.947V64H46.6541V57.16H47.5361V60.346C47.7611 59.698 48.3371 59.077 49.2371 59.077ZM48.9491 63.451C49.8671 63.451 50.3891 62.722 50.3891 61.588C50.3891 60.454 49.8671 59.725 48.9491 59.725C48.0311 59.725 47.5001 60.454 47.5001 61.588C47.5001 62.722 48.0311 63.451 48.9491 63.451ZM54.2219 63.388L55.6349 59.176H56.5529L54.3389 65.764H53.4209L54.1949 63.469H53.3399L51.6659 59.176H52.5749L54.2219 63.388ZM65.3333 64H64.3613L63.6233 61.93H60.2663L59.5283 64H58.5563L61.0133 57.16H62.8763L65.3333 64ZM61.9493 57.196L60.5543 61.12H63.3353L61.9493 57.196ZM68.0595 64.099C66.6285 64.099 65.7105 63.082 65.7105 61.588C65.7105 60.094 66.6285 59.077 68.0595 59.077C69.2475 59.077 70.0305 59.797 70.2375 60.814H69.3375C69.2025 60.22 68.7885 59.725 68.0595 59.725C67.1415 59.725 66.6105 60.454 66.6105 61.588C66.6105 62.722 67.1415 63.451 68.0595 63.451C68.7615 63.451 69.1935 63.073 69.3915 62.389H70.2915C70.0395 63.496 69.1575 64.099 68.0595 64.099ZM76.6539 59.077C77.7069 59.077 78.2559 59.878 78.2559 60.994V61.012V64H77.3739V61.147V61.129C77.3739 60.157 76.9959 59.725 76.2939 59.725C75.5919 59.725 75.2139 60.157 75.2139 61.147V64H74.3319V61.147V61.129C74.3319 60.157 73.9539 59.725 73.2519 59.725C72.5499 59.725 72.1719 60.157 72.1719 61.147V64H71.2899V59.176H72.1719V60.157C72.3879 59.581 72.8199 59.077 73.6119 59.077C74.4399 59.077 74.9529 59.662 75.1239 60.283C75.3219 59.698 75.7899 59.077 76.6539 59.077ZM83.8613 61.516C83.8613 61.606 83.8523 61.732 83.8433 61.849H80.1983C80.2703 62.893 80.8013 63.451 81.6023 63.451C82.3043 63.451 82.6733 63.127 82.8533 62.587H83.7533C83.4743 63.613 82.6913 64.099 81.6023 64.099C80.1443 64.099 79.3073 63.037 79.3073 61.588C79.3073 60.121 80.1623 59.077 81.5933 59.077C82.9433 59.077 83.8613 60.031 83.8613 61.516ZM81.5933 59.725C80.8283 59.725 80.3153 60.22 80.2073 61.183H82.9613C82.9073 60.319 82.3853 59.725 81.5933 59.725ZM91.8509 60.067V57.16H92.7599V64H91.8509V60.877H88.2689V64H87.3599V57.16H88.2689V60.067H91.8509ZM96.2723 64.099C94.8413 64.099 93.9233 63.082 93.9233 61.588C93.9233 60.094 94.8413 59.077 96.2723 59.077C97.7033 59.077 98.6123 60.094 98.6123 61.588C98.6123 63.082 97.7033 64.099 96.2723 64.099ZM96.2723 63.451C97.1903 63.451 97.7123 62.722 97.7123 61.588C97.7123 60.454 97.1903 59.725 96.2723 59.725C95.3543 59.725 94.8233 60.454 94.8233 61.588C94.8233 62.722 95.3543 63.451 96.2723 63.451ZM101.388 64.099C100.317 64.099 99.4797 63.577 99.3447 62.587H100.245C100.38 63.271 100.902 63.451 101.388 63.451C102.144 63.451 102.531 63.163 102.531 62.722C102.531 62.29 102.279 62.083 101.559 61.93L100.884 61.786C100.047 61.606 99.4707 61.228 99.4707 60.49C99.4707 59.635 100.317 59.077 101.37 59.077C102.306 59.077 103.107 59.509 103.323 60.382H102.423C102.288 59.959 101.838 59.725 101.37 59.725C100.848 59.725 100.344 59.968 100.344 60.4C100.344 60.787 100.659 60.922 101.307 61.057L101.982 61.201C102.99 61.417 103.404 61.867 103.404 62.614C103.404 63.541 102.576 64.099 101.388 64.099ZM106.414 63.334H106.954V64H106.324C105.487 64 104.83 63.595 104.83 62.677V62.659V59.842H103.813V59.176H104.83V58.033H105.712V59.176H106.936V59.842H105.712V62.659V62.677C105.712 63.19 105.973 63.334 106.414 63.334ZM108.806 58.348H107.852V57.16H108.806V58.348ZM108.77 64H107.888V59.176H108.77V64ZM112.567 59.077C113.656 59.077 114.241 59.914 114.241 60.994V61.012V64H113.359V61.147V61.129C113.359 60.148 112.909 59.725 112.207 59.725C111.505 59.725 111.055 60.157 111.055 61.147V64H110.173V59.176H111.055V60.157C111.271 59.59 111.739 59.077 112.567 59.077ZM119.061 60.319V59.176H119.943V64.018C119.943 65.305 118.863 65.863 117.738 65.863C116.577 65.863 115.659 65.314 115.551 64.261H116.451C116.532 64.891 117.09 65.215 117.738 65.215C118.476 65.215 119.061 64.828 119.061 64.036V62.848C118.764 63.532 118.08 63.973 117.36 63.973C116.19 63.973 115.308 63.01 115.308 61.525C115.308 60.04 116.199 59.077 117.36 59.077C118.26 59.077 118.836 59.671 119.061 60.319ZM117.648 63.325C118.566 63.325 119.097 62.659 119.097 61.525C119.097 60.391 118.566 59.725 117.648 59.725C116.73 59.725 116.208 60.391 116.208 61.525C116.208 62.659 116.73 63.325 117.648 63.325Z" fill="black"/>
<mask id="path-10-inside-2_1_62" fill="white">
<path d="M12 71H188V91H12V71Z"/>
</mask>
<path d="M12 72H188V70H12V72Z" fill="black" mask="url(#path-10-inside-2_1_62)"/>
<path d="M54.1238 83.81V82.91H57.8738V87H56.9938V85.08C56.6838 86.11 55.8738 87.11 54.3338 87.11C52.3638 87.11 50.8438 85.53 50.8438 83.2C50.8438 80.87 52.3238 79.29 54.4138 79.29C56.1838 79.29 57.3738 80.23 57.7638 81.75H56.7138C56.3738 80.79 55.6237 80.14 54.4138 80.14C52.9038 80.14 51.8938 81.4 51.8938 83.2C51.8938 85.01 52.9238 86.26 54.4538 86.26C55.8438 86.26 56.8338 85.39 56.8638 83.81H54.1238ZM63.4555 83.75L65.3955 87H64.2155L62.3855 83.9H62.3555H60.5655V87H59.5555V79.4H62.3555C64.0355 79.4 65.0855 80.28 65.0855 81.65C65.0855 82.69 64.4755 83.45 63.4555 83.75ZM62.3755 80.3H60.5655V83H62.3755C63.4055 83 64.0355 82.52 64.0355 81.65C64.0355 80.78 63.4055 80.3 62.3755 80.3ZM67.6748 83.53V86.1H71.7048V87H66.6648V79.4H71.6148V80.3H67.6748V82.63H71.5448V83.53H67.6748ZM74.2373 83.53V86.1H78.2673V87H73.2273V79.4H78.1773V80.3H74.2373V82.63H78.1073V83.53H74.2373ZM85.3098 86.96V79.4H86.3198V87H84.2298L80.7998 79.44V87H79.7898V79.4H81.8798L85.3098 86.96ZM97.7332 86.96L99.5932 79.4H100.663L98.7932 87H96.6932L95.1932 79.45L93.6932 87H91.5932L89.7232 79.4H90.7932L92.6532 86.96L94.1532 79.4H96.2332L97.7332 86.96ZM102.812 83.53V86.1H106.842V87H101.802V79.4H106.752V80.3H102.812V82.63H106.682V83.53H102.812ZM111.894 83.09C113.304 83.14 114.044 83.74 114.044 84.89C114.044 86.26 113.014 87 111.224 87H108.364V79.4H111.224C113.074 79.4 113.784 80.32 113.784 81.37C113.784 82.37 113.014 82.98 111.894 83.09ZM112.734 81.47C112.734 80.67 112.174 80.3 111.224 80.3H109.374V82.63H111.224C112.174 82.63 112.734 82.28 112.734 81.47ZM109.374 86.1H111.254C112.424 86.1 112.994 85.65 112.994 84.82C112.994 83.98 112.424 83.53 111.254 83.53H109.374V86.1ZM122.833 79.4V80.3H118.993V82.75H122.773V83.65H118.993V87H117.983V79.4H122.833ZM127.296 87.11C125.156 87.11 123.676 85.53 123.676 83.2C123.676 80.87 125.156 79.29 127.296 79.29C129.436 79.29 130.916 80.87 130.916 83.2C130.916 85.53 129.436 87.11 127.296 87.11ZM127.296 86.26C128.826 86.26 129.866 85 129.866 83.2C129.866 81.4 128.826 80.14 127.296 80.14C125.766 80.14 124.726 81.4 124.726 83.2C124.726 85 125.766 86.26 127.296 86.26ZM135.278 87.11C133.148 87.11 132.288 85.94 132.288 83.97V83.95V79.4H133.298V84.01V84.03C133.298 85.55 133.968 86.26 135.278 86.26C136.588 86.26 137.248 85.54 137.248 84.01V79.4H138.258V83.95C138.258 85.93 137.408 87.11 135.278 87.11ZM145.603 86.96V79.4H146.613V87H144.523L141.093 79.44V87H140.083V79.4H142.173L145.603 86.96ZM148.511 79.4H151.101C153.371 79.4 154.871 80.73 154.871 83.2C154.871 85.67 153.371 87 151.101 87H148.511V79.4ZM149.521 86.1H151.131C152.831 86.1 153.821 85.07 153.821 83.2C153.821 81.34 152.831 80.3 151.131 80.3H149.521V86.1ZM162.826 87H161.746L160.926 84.7H157.196L156.376 87H155.296L158.026 79.4H160.096L162.826 87ZM159.066 79.44L157.516 83.8H160.606L159.066 79.44ZM162.174 79.4H168.244V80.3H165.714V87H164.704V80.3H162.174V79.4ZM170.38 87H169.37V79.4H170.38V87ZM175.45 87.11C173.31 87.11 171.83 85.53 171.83 83.2C171.83 80.87 173.31 79.29 175.45 79.29C177.59 79.29 179.07 80.87 179.07 83.2C179.07 85.53 177.59 87.11 175.45 87.11ZM175.45 86.26C176.98 86.26 178.02 85 178.02 83.2C178.02 81.4 176.98 80.14 175.45 80.14C173.92 80.14 172.88 81.4 172.88 83.2C172.88 85 173.92 86.26 175.45 86.26ZM186.042 86.96V79.4H187.052V87H184.962L181.532 79.44V87H180.522V79.4H182.612L186.042 86.96Z" fill="black"/>
<defs>
<linearGradient id="paint0_linear_1_62" x1="3.5" y1="90.5" x2="68" y2="21.5" gradientUnits="userSpaceOnUse">
<stop stop-color="#12F60C"/>
<stop offset="0.62223" stop-color="white"/>
</linearGradient>
</defs>
</svg>
