<svg width="200" height="95" viewBox="0 0 200 95" fill="none" xmlns="http://www.w3.org/2000/svg">
<rect x="1" y="1" width="198" height="93" rx="7" fill="url(#paint0_linear_35_75)"/>
<rect x="1" y="1" width="198" height="93" rx="7" stroke="black" stroke-width="2"/>
<mask id="path-2-inside-1_35_75" fill="white">
<path d="M12 6H70V33H12V6Z"/>
</mask>
<path d="M70 32H12V34H70V32Z" fill="black" mask="url(#path-2-inside-1_35_75)"/>
<path d="M17.408 27.176C14.832 27.176 12.976 25.72 12.608 23.336H14.288C14.512 24.984 15.776 25.816 17.408 25.816C19.552 25.816 20.72 24.92 20.72 23.656C20.72 22.328 19.744 22.008 17.792 21.576L16.272 21.24C14.368 20.824 12.992 19.864 12.992 18.04C12.992 16.104 14.928 14.664 17.376 14.664C19.936 14.664 21.68 16.008 22.032 18.008H20.352C19.968 16.616 18.848 16.024 17.376 16.024C15.84 16.024 14.624 16.76 14.624 17.88C14.624 19.032 15.408 19.416 17.28 19.832L18.8 20.168C21.248 20.712 22.352 21.576 22.352 23.48C22.352 25.656 20.384 27.176 17.408 27.176ZM29.6701 27.176C26.2461 27.176 23.8781 24.648 23.8781 20.92C23.8781 17.192 26.2461 14.664 29.6701 14.664C33.0941 14.664 35.4621 17.192 35.4621 20.92C35.4621 24.648 33.0941 27.176 29.6701 27.176ZM29.6701 25.816C32.1181 25.816 33.7821 23.8 33.7821 20.92C33.7821 18.04 32.1181 16.024 29.6701 16.024C27.2221 16.024 25.5581 18.04 25.5581 20.92C25.5581 23.8 27.2221 25.816 29.6701 25.816ZM44.0256 21.8L47.1296 27H45.2416L42.3136 22.04H42.2656H39.4016V27H37.7856V14.84H42.2656C44.9536 14.84 46.6336 16.248 46.6336 18.44C46.6336 20.104 45.6576 21.32 44.0256 21.8ZM42.2976 16.28H39.4016V20.6H42.2976C43.9456 20.6 44.9536 19.832 44.9536 18.44C44.9536 17.048 43.9456 16.28 42.2976 16.28ZM55.4006 21.8L58.5046 27H56.6166L53.6886 22.04H53.6406H50.7766V27H49.1606V14.84H53.6406C56.3286 14.84 58.0086 16.248 58.0086 18.44C58.0086 20.104 57.0326 21.32 55.4006 21.8ZM53.6726 16.28H50.7766V20.6H53.6726C55.3206 20.6 56.3286 19.832 56.3286 18.44C56.3286 17.048 55.3206 16.28 53.6726 16.28ZM67.5854 14.84H69.4414L64.8174 21.784V27H63.2014V21.784L58.5774 14.84H60.4174L64.0014 20.232L67.5854 14.84Z" fill="black"/>
<path d="M159.458 23.285V23.6825C159.458 30.7875 165.238 36.565 172.34 36.565C179.443 36.565 185.223 30.785 185.223 23.6825V23.285H159.458Z" fill="white"/>
<path d="M159 23.05V23.46C159 30.7875 164.96 36.7475 172.287 36.7475C179.615 36.7475 185.575 30.7875 185.575 23.46V23.05H159ZM171.877 30.0925V35.8775C170.35 35.5375 168.497 33.3775 167.35 30.0925H171.877ZM167.087 29.2725C166.615 27.675 166.312 25.8525 166.28 23.87H171.877V29.2725H167.087ZM172.695 35.8725V30.0925H177.165C176.875 30.895 176.535 31.6625 176.145 32.38C175.102 34.2925 173.792 35.6 172.695 35.8725ZM172.695 29.2725V23.87H178.292C178.257 25.73 177.965 27.57 177.442 29.2725H172.695ZM165.46 23.87C165.492 25.805 165.78 27.635 166.247 29.2725H161.262C160.378 27.6046 159.887 25.7568 159.825 23.87H165.462H165.46ZM161.735 30.0925H166.502C167.335 32.585 168.575 34.565 169.897 35.6975C166.467 35.03 163.537 32.9525 161.735 30.0925ZM174.62 35.7075C175.94 34.57 177.185 32.5725 178.032 30.0925H182.842C181.03 32.9675 178.075 35.05 174.622 35.7075H174.62ZM183.312 29.2725H178.29C178.775 27.62 179.075 25.785 179.112 23.87H184.747C184.687 25.757 184.195 27.605 183.31 29.2725H183.312Z" fill="black"/>
<path d="M173.75 19H170.75C170.617 19 170.5 19.0503 170.4 19.1501C170.3 19.2502 170.25 19.3668 170.25 19.5001V22.5003C170.25 22.6337 170.3 22.7504 170.4 22.8503C170.5 22.9501 170.617 23.0003 170.75 23.0003H173.75C173.883 23.0003 174 22.9502 174.1 22.8503C174.2 22.7504 174.25 22.6337 174.25 22.5003V19.5001C174.25 19.3668 174.2 19.2502 174.1 19.1501C174 19.05 173.883 19 173.75 19Z" fill="#C2C2C1"/>
<path d="M177.762 10.6954C177.436 10.1333 177.016 9.65924 176.5 9.27223C175.984 8.88538 175.405 8.57644 174.762 8.34588C174.119 8.1154 173.481 8 172.846 8C170.433 8 168.592 8.9896 167.323 10.9688C167.259 11.0655 167.237 11.1697 167.257 11.2813C167.277 11.3928 167.338 11.4858 167.442 11.5602L169.394 12.9554C169.497 13.0149 169.596 13.0446 169.691 13.0446C169.834 13.0446 169.957 12.985 170.061 12.866C170.632 12.1964 171.056 11.7686 171.334 11.5825C171.675 11.3668 172.104 11.2589 172.62 11.2589C173.104 11.2589 173.53 11.378 173.899 11.6159C174.268 11.8541 174.453 12.1294 174.453 12.4419C174.453 12.7914 174.354 13.0743 174.155 13.2901C173.957 13.5058 173.623 13.714 173.155 13.915C172.536 14.1754 171.969 14.5791 171.453 15.126C170.937 15.6729 170.679 16.2552 170.679 16.8727V17.3749C170.679 17.5164 170.721 17.6558 170.804 17.7935C170.888 17.9312 170.989 18 171.108 18H173.965C174.092 18 174.203 17.9425 174.298 17.8267C174.393 17.7117 174.441 17.5908 174.441 17.4645C174.441 17.2785 174.55 17.029 174.768 16.7167C174.986 16.4042 175.258 16.1621 175.584 15.9909C175.893 15.8273 176.135 15.6954 176.309 15.5948C176.484 15.4945 176.712 15.3323 176.994 15.1093C177.276 14.886 177.494 14.6646 177.649 14.4452C177.803 14.2257 177.942 13.941 178.065 13.5913C178.189 13.2416 178.25 12.8658 178.25 12.4641C178.25 11.8465 178.087 11.2569 177.762 10.6954Z" fill="#C2C2C1"/>
<mask id="path-9-inside-2_35_75" fill="white">
<path d="M12 71H188V91H12V71Z"/>
</mask>
<path d="M12 72H188V70H12V72Z" fill="black" mask="url(#path-9-inside-2_35_75)"/>
<path d="M54.1238 83.81V82.91H57.8738V87H56.9938V85.08C56.6838 86.11 55.8738 87.11 54.3338 87.11C52.3638 87.11 50.8438 85.53 50.8438 83.2C50.8438 80.87 52.3238 79.29 54.4138 79.29C56.1838 79.29 57.3738 80.23 57.7638 81.75H56.7138C56.3738 80.79 55.6237 80.14 54.4138 80.14C52.9038 80.14 51.8938 81.4 51.8938 83.2C51.8938 85.01 52.9238 86.26 54.4538 86.26C55.8438 86.26 56.8338 85.39 56.8638 83.81H54.1238ZM63.4555 83.75L65.3955 87H64.2155L62.3855 83.9H62.3555H60.5655V87H59.5555V79.4H62.3555C64.0355 79.4 65.0855 80.28 65.0855 81.65C65.0855 82.69 64.4755 83.45 63.4555 83.75ZM62.3755 80.3H60.5655V83H62.3755C63.4055 83 64.0355 82.52 64.0355 81.65C64.0355 80.78 63.4055 80.3 62.3755 80.3ZM67.6748 83.53V86.1H71.7048V87H66.6648V79.4H71.6148V80.3H67.6748V82.63H71.5448V83.53H67.6748ZM74.2373 83.53V86.1H78.2673V87H73.2273V79.4H78.1773V80.3H74.2373V82.63H78.1073V83.53H74.2373ZM85.3098 86.96V79.4H86.3198V87H84.2298L80.7998 79.44V87H79.7898V79.4H81.8798L85.3098 86.96ZM97.7332 86.96L99.5932 79.4H100.663L98.7932 87H96.6932L95.1932 79.45L93.6932 87H91.5932L89.7232 79.4H90.7932L92.6532 86.96L94.1532 79.4H96.2332L97.7332 86.96ZM102.812 83.53V86.1H106.842V87H101.802V79.4H106.752V80.3H102.812V82.63H106.682V83.53H102.812ZM111.894 83.09C113.304 83.14 114.044 83.74 114.044 84.89C114.044 86.26 113.014 87 111.224 87H108.364V79.4H111.224C113.074 79.4 113.784 80.32 113.784 81.37C113.784 82.37 113.014 82.98 111.894 83.09ZM112.734 81.47C112.734 80.67 112.174 80.3 111.224 80.3H109.374V82.63H111.224C112.174 82.63 112.734 82.28 112.734 81.47ZM109.374 86.1H111.254C112.424 86.1 112.994 85.65 112.994 84.82C112.994 83.98 112.424 83.53 111.254 83.53H109.374V86.1ZM122.833 79.4V80.3H118.993V82.75H122.773V83.65H118.993V87H117.983V79.4H122.833ZM127.296 87.11C125.156 87.11 123.676 85.53 123.676 83.2C123.676 80.87 125.156 79.29 127.296 79.29C129.436 79.29 130.916 80.87 130.916 83.2C130.916 85.53 129.436 87.11 127.296 87.11ZM127.296 86.26C128.826 86.26 129.866 85 129.866 83.2C129.866 81.4 128.826 80.14 127.296 80.14C125.766 80.14 124.726 81.4 124.726 83.2C124.726 85 125.766 86.26 127.296 86.26ZM135.278 87.11C133.148 87.11 132.288 85.94 132.288 83.97V83.95V79.4H133.298V84.01V84.03C133.298 85.55 133.968 86.26 135.278 86.26C136.588 86.26 137.248 85.54 137.248 84.01V79.4H138.258V83.95C138.258 85.93 137.408 87.11 135.278 87.11ZM145.603 86.96V79.4H146.613V87H144.523L141.093 79.44V87H140.083V79.4H142.173L145.603 86.96ZM148.511 79.4H151.101C153.371 79.4 154.871 80.73 154.871 83.2C154.871 85.67 153.371 87 151.101 87H148.511V79.4ZM149.521 86.1H151.131C152.831 86.1 153.821 85.07 153.821 83.2C153.821 81.34 152.831 80.3 151.131 80.3H149.521V86.1ZM162.826 87H161.746L160.926 84.7H157.196L156.376 87H155.296L158.026 79.4H160.096L162.826 87ZM159.066 79.44L157.516 83.8H160.606L159.066 79.44ZM162.174 79.4H168.244V80.3H165.714V87H164.704V80.3H162.174V79.4ZM170.38 87H169.37V79.4H170.38V87ZM175.45 87.11C173.31 87.11 171.83 85.53 171.83 83.2C171.83 80.87 173.31 79.29 175.45 79.29C177.59 79.29 179.07 80.87 179.07 83.2C179.07 85.53 177.59 87.11 175.45 87.11ZM175.45 86.26C176.98 86.26 178.02 85 178.02 83.2C178.02 81.4 176.98 80.14 175.45 80.14C173.92 80.14 172.88 81.4 172.88 83.2C172.88 85 173.92 86.26 175.45 86.26ZM186.042 86.96V79.4H187.052V87H184.962L181.532 79.44V87H180.522V79.4H182.612L186.042 86.96Z" fill="black"/>
<defs>
<linearGradient id="paint0_linear_35_75" x1="3.5" y1="90.5" x2="74" y2="29" gradientUnits="userSpaceOnUse">
<stop stop-color="#6C6C6C"/>
<stop offset="0.458673" stop-color="#DEDEDE"/>
<stop offset="0.620613" stop-color="white"/>
</linearGradient>
</defs>
</svg>
